<?xml version="1.0" encoding="utf-8"?>
<!-- Generator: Adobe Illustrator 23.0.0, SVG Export Plug-In . SVG Version: 6.00 Build 0)  -->
<svg version="1.1" baseProfile="basic" id="Capa_1" xmlns="http://www.w3.org/2000/svg" xmlns:xlink="http://www.w3.org/1999/xlink"
	 x="0px" y="0px" viewBox="0 0 595.28 841.89" xml:space="preserve">
<style type="text/css">
	.st0{fill:none;stroke:#000000;stroke-miterlimit:10;}
</style>
<g>
	<path class="st0" d="M131.39,432.91l-1.93-0.35l0.16-8.55l-7.39-9.74l0.21,14.34l0.06,2.7l-2.88-0.52l-0.41-21.41l4.05-0.96
		l0.7,1.35l2.77,2.5c0,0,2.02-3.45,1.65-4.29c-0.08-0.18-0.06-0.46,0.01-0.78l2.59-0.61L131.39,432.91z"/>
	<path class="st0" d="M128.96,484.88l-0.59,0.25c-0.83,0.33-1.72,0.43-2.59,0.28c-0.32-0.05-1.04-1.36-1.04-1.36l-0.25-19.96
		l-1.44-2.18l-0.57-30.59l-0.06-2.7l-0.21-14.34l7.39,9.74l-0.16,8.55l-0.58,32.26L128.96,484.88z"/>
	<path class="st0" d="M126.71,412.28l-2.77-2.5l-0.7-1.35l-1.09-2.12l0.21-32.39l1.39-3.63l-0.33-14.9l0.73-1.89
		c0.14-0.37,0.56-0.56,0.94-0.41c0.61,0.25,1.44,0.58,1.69,0.67c0,0.69,2.68,20.7,1.8,20.93c-0.91,0.24,1.14,29.77,1.14,29.77
		s-1.06,1.64-1.35,2.76c-0.07,0.32-0.09,0.6-0.01,0.78C128.73,408.82,126.71,412.28,126.71,412.28z"/>
	<line class="st0" x1="123.76" y1="370.29" x2="128.58" y2="374.68"/>
	<line class="st0" x1="122.36" y1="373.92" x2="128.35" y2="377.81"/>
	<line class="st0" x1="122.35" y1="376.39" x2="128.41" y2="380.62"/>
	<line class="st0" x1="122.33" y1="379.19" x2="128.49" y2="382.95"/>
	<line class="st0" x1="123.43" y1="355.39" x2="127.02" y2="356.77"/>
	<line class="st0" x1="123.47" y1="357.52" x2="127.27" y2="358.98"/>
	<line class="st0" x1="123.51" y1="359.27" x2="127.49" y2="360.79"/>
	<line class="st0" x1="128.92" y1="461.65" x2="122.95" y2="456.45"/>
	<line class="st0" x1="122.99" y1="458.81" x2="128.88" y2="463.85"/>
	<polyline class="st0" points="124.49,464.09 127.79,466.71 128.87,466.74 	"/>
	<line class="st0" x1="123.03" y1="460.83" x2="128.87" y2="465.53"/>
	<line class="st0" x1="124.69" y1="480.04" x2="128.94" y2="480"/>
	<line class="st0" x1="124.71" y1="481.42" x2="128.94" y2="481.48"/>
	<line class="st0" x1="124.73" y1="482.96" x2="128.95" y2="483.04"/>
</g>
</svg>
