<?xml version="1.0" encoding="utf-8"?>
<!-- Generator: Adobe Illustrator 23.0.0, SVG Export Plug-In . SVG Version: 6.00 Build 0)  -->
<svg version="1.1" baseProfile="basic" id="Capa_1" xmlns="http://www.w3.org/2000/svg" xmlns:xlink="http://www.w3.org/1999/xlink"
	 x="0px" y="0px" viewBox="0 0 595.28 841.89" xml:space="preserve">
<style type="text/css">
	.st0{fill:none;stroke:#000000;stroke-miterlimit:10;}
</style>
<path class="st0" d="M119.19,409.39l0.41,21.4c0,0-18.36-6.8-18.1-10.91C101.76,415.78,119.19,409.39,119.19,409.39z"/>
<g>
	<path class="st0" d="M189.21,413.48c0.3,0.28,8.16,3,11.42,2.41c5.92-1.07,12.57-7.59,10.05-9.46c-2.07-1.53-8.14-2.81-13.39-2.85
		c-4.61-0.04-45.99,0.37-56.08,0.47c-2.09,0.02-4.06,1.12-5.03,2.97c-0.43,0.81-0.69,1.77-0.55,2.84c0.48,3.47,6.07,3.48,6.07,3.48
		l45.14-0.11L189.21,413.48z"/>
	<polygon class="st0" points="229.99,445.96 221.82,446.24 217.81,442.29 230.04,442.18 	"/>
	<path class="st0" d="M299.11,446.87l-7.28,0.29c-1.24,0.05-2.48,0.2-3.69,0.48l-13.28,2.92l-3.43-2.2l-0.8-0.51l-0.26-5.84
		l-14.71-16.46l12.24,0.15c1.87,0.3,4.72,3.27,4.72,3.27l24.75,16.73L299.11,446.87z"/>
	<polygon class="st0" points="274.86,450.57 257.33,451.44 257.35,449.81 271.43,448.36 	"/>
	<path class="st0" d="M282.6,435.72c0,0,12.47,1.04,15.83,2.78c3.36,1.74,6.48,4.76,6.38,6.94c-0.1,2.18-5.7,1.43-5.7,1.43
		L282.6,435.72z"/>
	<path class="st0" d="M201.68,437.74c-3.38,0.16-11.04,0.44-12.42,0.04c-0.8-0.23-1.24-0.4-1.5-0.72c-0.32-0.39-0.37-1.03-0.46-2.33
		c-0.01-0.23-0.01-0.43,0.03-0.61c0.06-0.49,0.26-0.83,0.51-1.09c0.66-0.66,1.67-0.64,1.67-0.64l14.3-0.48
		c-0.01,0.07-0.01,0.11-0.01,0.11S202.54,434.77,201.68,437.74z"/>
	<path class="st0" d="M220.64,448.18l-10.41,0.43l-0.04,0.88c-1.25-0.05-2.24-0.15-2.78-0.3c-2.73-0.8-4.01-2.19-6.01-4.93
		c-0.33-0.46-0.48-1.08-0.51-1.83l16.9-0.14l4.01,3.95l-1.02,0.04L220.64,448.18z"/>
	<path class="st0" d="M212.67,437.23l1.06,1.05l-12.24,0.13l0.18-0.67c0.86-2.97,2.13-5.73,2.13-5.73s0.01-0.04,0.01-0.11
		c0.08-0.48,0.57-2.47,3.44-4.16c3.29-1.94,12.54-5.22,12.54-5.22c-2.79,2.55-7.72,10.45-8.2,11.49
		C211.12,435.07,212.67,437.23,212.67,437.23z"/>
	<path class="st0" d="M187.76,437.06l-20.63-0.37l-0.07-1.96l11.17-0.37l9.1-0.24c-0.04,0.18-0.04,0.38-0.03,0.61
		C187.39,436.03,187.44,436.67,187.76,437.06z"/>
	
		<ellipse transform="matrix(0.9997 -0.0261 0.0261 0.9997 -10.6925 9.8911)" class="st0" cx="373.83" cy="414.84" rx="3.84" ry="3.84"/>
	<path class="st0" d="M384.22,419.19c-2.25,5.86-8.83,8.79-14.69,6.54c-5.86-2.25-8.79-8.83-6.54-14.69
		c2.25-5.86,8.83-8.79,14.69-6.54C383.55,406.75,386.47,413.32,384.22,419.19z"/>
	<path class="st0" d="M387.93,420.26c-3.01,7.84-11.81,11.76-19.65,8.75c-7.84-3.01-11.76-11.81-8.75-19.65
		c3.01-7.84,11.81-11.76,19.65-8.75C387.02,403.61,390.94,412.41,387.93,420.26z"/>
	<path class="st0" d="M339.13,396.63c-0.17,0.29-3.43,5.26-3.43,5.26l6.21,0.04L339.13,396.63z"/>
	<path class="st0" d="M290.06,390.74l-1.62,0l0.31,15.89l1.52,0l0.32,0l9.53-11.35l0.06-0.07l-10-0.08l-0.04-1.51l11.48-0.12
		l1.09-1.3l0.55-1.44L290.06,390.74z M287.23,392.1l-8.52,0.04l3.86,0.2c0.11,0.17,3.48,4.66,3.56,4.81c0.09,0.15,0,3.83,0,3.83
		l-7.49-8.84l-4.63,0.02l0.42,12.39l12.73,0.28l0.07-10.71L287.23,392.1z M259.59,392.2l0.12,12.56l12.78,0.13l-0.3-12.68
		L259.59,392.2z M256.48,392.19l-3.77-0.02l-5.27,8.07l8.4,4.13L256.48,392.19z"/>
	<path class="st0" d="M288.49,390.67l-30.91-0.06l0.21,15.9l31,0.05L288.49,390.67z M259.76,404.69l-0.12-12.56l12.6,0.01l0.3,12.68
		L259.76,404.69z M274.07,392.08l4.63-0.02l0.07,0.01l8.52-0.04l-0.01,2.02l-0.07,10.71l-12.73-0.28L274.07,392.08z"/>
	<polygon class="st0" points="301.62,393.5 300.18,395.21 290.18,395.13 290.14,393.62 	"/>
	<path class="st0" d="M257.53,390.67l-6.4-0.02l-5.63,7.38l1.21,3.26l0.02,0.01l9.01,4.62l1.28,0.65l0.72,0L257.53,390.67z
		 M247.43,400.23l5.27-8.07l3.77,0.02l-0.65,12.18L247.43,400.23z"/>
	<polygon class="st0" points="255.83,404.36 247.43,400.23 252.7,392.16 256.48,392.19 	"/>
	<polygon class="st0" points="272.49,404.89 269.02,404.86 270.43,403.67 271.18,403.3 272.43,402.69 	"/>
	<path class="st0" d="M271.18,403.3l-0.75,0.37l-1.41,1.18l-9.31-0.1l-0.12-12.56l10.82,0.01c0,0-1.58,1.83-1.87,3.05
		c-0.3,1.22-0.48,3.07-0.48,3.07l0.68-0.03l-0.24,1.15l0.96,0.37l-0.33,0.85l-0.03,1.44l1.89,0.03L271.18,403.3z"/>
	<polygon class="st0" points="274.01,392.15 275.07,392.15 274.01,392.16 	"/>
	<path class="st0" d="M281.88,404.7l-7.45-0.16l-0.09-2.8l0.75-0.37l0.95-0.83c0.28-0.25,0.63-0.36,0.98-0.35
		c0.4,0,0.79,0.17,1.07,0.5L281.88,404.7z"/>
	<line class="st0" x1="290.14" y1="393.62" x2="290.06" y2="390.74"/>
	<polygon class="st0" points="298.47,395.23 290.25,404.63 290.18,395.13 	"/>
	<path class="st0" d="M271.43,448.36l-14.08,1.45l0.13-10.79l-2.93-0.01l-0.07,7.4l-16.56,0.41l-4.33-8.43l-15.49-0.25l-0.16-3.55
		l-3.83,0.04l0.12,3.64l-0.51,0.01l-1.06-1.05c0,0-1.55-2.16-1.07-3.22c0.49-1.05,5.42-8.94,8.2-11.49
		c2.79-2.55,11.97-2.24,14.88-2.35c2.92-0.11,31.36,5.23,33.21,5.53l-12.24-0.15l14.71,16.46l0.26,5.84L271.43,448.36z"/>
	<path class="st0" d="M303.26,390.76l28.5,1.13l94.21,6.25l9.99,0.55c0,0,17.14-30.26,18.3-32.37c1.16-2.11,7.75-5.64,7.75-5.64
		l14.02,12.59l-0.59,42.12l-22.36,4.91l-102.59,19.94l-45.68,5.21"/>
	<path class="st0" d="M231.32,452.49l-2.72,0.28c0,0-0.04,0.01-0.1,0.04c-1.5,0.57-20.19,7.34-50.34,5.02
		c-31.45-2.42-37.06-13.31-37.06-13.31l-0.77-5.88c0,0-2.71-0.81-4.46-1.71c-1.74-0.9-4.43-4.1-4.43-4.1L131,406.49
		c0,0,3.08-1.3,10.25-2.53c7.16-1.23,24.34-2.04,30.17-2.7c5.84-0.67,74.08-3.22,74.08-3.22"/>
	<path class="st0" d="M485.82,380.12l-9.43-20.55c3.33,0.22,6.5,0.93,8.54,2.57c1.67,1.34,3.21,3.08,4.6,5.02L485.82,380.12z"/>
	<path class="st0" d="M483.75,387.51l-7.86,27.84c-0.31,0.08-0.49,0.13-0.49,0.13l0.59-42.12l-14.01-12.6c0,0,3.67-0.8,8.22-1.14
		L483.75,387.51z"/>
	<path class="st0" d="M487.02,394.88l7.9,14.92c-1.59,0.6-3.51,1.22-5.83,1.88c-2.08,0.59-5.02,1.41-7.63,2.14L487.02,394.88z"/>
	<path class="st0" d="M499.16,407.87l-9.29-21.32l3.76-12.53c1.8,3.51,3.24,6.99,4.36,9.55c2.9,6.65,4.46,20.2,4.46,20.2
		C502.42,404.94,501.93,406.28,499.16,407.87z"/>
	<path class="st0" d="M499.16,407.87c-1.05,0.61-2.43,1.25-4.24,1.93l-7.89-14.92l-5.57,18.94c-2.46,0.67-4.64,1.27-5.57,1.53
		l6.46-22.87c0.79-0.17,1.51-0.33,2.08-0.45c0.25-0.06,0.37-0.25,0.38-0.46c0-0.22-0.13-0.44-0.39-0.48
		c-0.45-0.09-0.99-0.17-1.6-0.23l0.94-3.34l-13.56-27.88c1.97-0.14,4.12-0.19,6.2-0.06l9.43,20.55l3.71-12.95
		c1.54,2.13,2.9,4.5,4.1,6.86l-3.76,12.53L499.16,407.87z"/>
	<path class="st0" d="M484.42,392.03c-0.57,0.12-1.29,0.29-2.08,0.45l0.25-0.87l0.21-0.75c0.61,0.06,1.16,0.14,1.6,0.23
		c0.26,0.05,0.39,0.27,0.39,0.48C484.8,391.77,484.67,391.97,484.42,392.03z"/>
	<polygon class="st0" points="460.92,358.32 461.22,361.02 459.32,361.82 459.66,358.48 	"/>
	<line class="st0" x1="460.95" y1="358.22" x2="344.7" y2="392.74"/>
	<path class="st0" d="M484.42,392.03c-0.57,0.12-1.29,0.29-2.08,0.45c-2.94,0.64-6.97,1.44-8.7,1.51c-2.63,0.1-8.11,0.56-9.06,0.64
		c-0.1,0.01-0.19,0-0.29,0l-1.7-0.16c-0.56-0.05-1-0.5-1.04-1.06l-0.05-0.52c-0.02-0.33,0.08-0.65,0.27-0.89l20.81-0.39l2.21-0.04
		C484.8,391.77,484.67,391.97,484.42,392.03z"/>
	<line class="st0" x1="471.68" y1="390.44" x2="471.66" y2="390.43"/>
	<path class="st0" d="M462.59,394.47l-16.89-0.51c-0.21-0.01-0.42-0.06-0.6-0.17l-0.79-0.48c-0.38-0.22-0.58-0.6-0.6-1l18.07-0.33
		c-0.19,0.25-0.29,0.56-0.27,0.89l0.05,0.52C461.6,393.97,462.04,394.42,462.59,394.47z"/>
	<polygon class="st0" points="455.13,419.93 454.91,423.21 450.79,426.8 444.32,422.09 	"/>
	
		<ellipse transform="matrix(0.9997 -0.0261 0.0261 0.9997 -11.063 12.1323)" class="st0" cx="459.56" cy="430.17" rx="4.07" ry="4.07"/>
	
		<ellipse transform="matrix(0.5634 -0.8262 0.8262 0.5634 -154.7462 567.532)" class="st0" cx="459.56" cy="430.17" rx="6.57" ry="6.57"/>
	<path class="st0" d="M459.58,432.23c-1.3-0.9-6.64-4.14-8.3-5.14c-0.24-0.15-0.27-0.49-0.06-0.67l3.23-2.82
		c0.22-0.19,0.57-0.11,0.67,0.17l1.32,3.54c0.04,0.11,0.13,0.2,0.24,0.24l3.27,1.25c0.08,0.03,0.15,0.09,0.2,0.16l1.1,1.64
		c0.11,0.17,0.09,0.39-0.06,0.54l-1.09,1.05C459.96,432.33,459.74,432.35,459.58,432.23z"/>
	<path class="st0" d="M257.32,452.66l-21.63-0.14l-4.37-0.03l-3.17-0.02l-5.64-0.03c0,0-11.77-0.02-12.42-0.86l0.11-2.08l0.04-0.88
		l10.41-0.43l0.16-1.91l1.02-0.04l8.17-0.28l0.05-3.77l-12.23,0.1l-16.9,0.14l-1.34,0.01c-0.71,0.01-1.36-0.38-1.69-1l-0.11-0.2
		c-0.4-0.77,0.3-2.15,1.16-2.79l2.57-0.03l12.24-0.13l0.51-0.01l-0.12-3.65l3.83-0.04l0.16,3.55l15.49,0.25l4.33,8.43l16.56-0.41
		l0.07-7.4l2.93,0.01l-0.13,10.79l-0.02,1.63L257.32,452.66z"/>
	<path class="st0" d="M258.73,436.82l0,1.23l-5.69-0.04l0-1.05c0-0.55,0.45-1,1-1l3.85,0.03
		C258.36,435.99,258.73,436.36,258.73,436.82z"/>
	<path class="st0" d="M239.03,431.68c0.01-0.29-1.84-0.58-4.14-0.64c-2.29-0.06-4.16,0.12-4.17,0.41c-0.01,0.29,1.84,0.58,4.14,0.64
		C237.16,432.16,239.02,431.97,239.03,431.68z"/>
	<path class="st0" d="M248.84,431.64c0.03-0.98-6.2-1.95-13.9-2.17c-7.71-0.21-13.98,0.41-14,1.39c-0.03,0.98,6.2,1.95,13.91,2.17
		C242.54,433.25,248.81,432.63,248.84,431.64z"/>
	<path class="st0" d="M254.35,431.49c0.04-1.35-8.55-2.69-19.17-2.99c-10.63-0.3-19.27,0.56-19.31,1.92
		c-0.04,1.35,8.55,2.69,19.17,2.99C245.67,433.7,254.31,432.84,254.35,431.49z"/>
	<path class="st0" d="M291.78,417.07l-143.5,2.05l-1.24-0.48c-1.7-0.65-3.14-1.83-4.12-3.37l-1.23-1.94l0.88-2.29l90.19-1.71
		l3.08,2.54c2.14,1.77,4.79,2.79,7.56,2.92L291.78,417.07z"/>
	<path class="st0" d="M145.31,416.21l0.46-0.23c0.46-0.23,0.97-0.32,1.48-0.29l1.48,0.11l0.02,0.14c0.08,0.76,0.66,1.37,1.41,1.48
		l1.58,0.24l0.5,1.4l-2.6,0.04c-0.9,0.01-1.78-0.21-2.56-0.65l-1.81-1.02C144.8,417.15,144.82,416.45,145.31,416.21z"/>
	<path class="st0" d="M151.51,415.96l0.46-0.23c0.46-0.23,0.97-0.33,1.48-0.29l1.48,0.11l0.02,0.14c0.08,0.76,0.66,1.37,1.41,1.48
		l1.58,0.24l0.51,1.4l-2.6,0.04c-0.9,0.01-1.78-0.21-2.56-0.65l-1.81-1.02C150.99,416.9,151.01,416.2,151.51,415.96z"/>
	<path class="st0" d="M158.62,415.59l0.46-0.23c0.46-0.23,0.97-0.32,1.48-0.29l1.48,0.11l0.01,0.14c0.08,0.76,0.66,1.37,1.41,1.48
		l1.58,0.24l0.5,1.4l-2.6,0.04c-0.9,0.01-1.78-0.21-2.56-0.65l-1.81-1.02C158.11,416.54,158.13,415.84,158.62,415.59z"/>
	<path class="st0" d="M165.9,415.73l0.46-0.23c0.46-0.23,0.97-0.33,1.48-0.29l1.48,0.11l0.02,0.14c0.08,0.76,0.66,1.37,1.41,1.48
		l1.58,0.24l0.5,1.4l-2.6,0.04c-0.9,0.01-1.78-0.21-2.56-0.65l-1.81-1.02C165.38,416.67,165.4,415.97,165.9,415.73z"/>
	<path class="st0" d="M172.92,415.62l0.46-0.23c0.46-0.22,0.97-0.32,1.48-0.29l1.48,0.11l0.01,0.14c0.08,0.76,0.66,1.37,1.41,1.48
		l1.58,0.24l0.5,1.4l-2.6,0.04c-0.9,0.01-1.78-0.21-2.56-0.66l-1.81-1.02C172.4,416.56,172.42,415.86,172.92,415.62z"/>
	<path class="st0" d="M180,415.66l0.46-0.23c0.46-0.23,0.97-0.33,1.48-0.29l1.48,0.11l0.02,0.14c0.08,0.76,0.66,1.37,1.41,1.48
		l1.58,0.24l0.5,1.4l-2.6,0.04c-0.9,0.01-1.78-0.21-2.56-0.66l-1.81-1.02C179.48,416.6,179.5,415.91,180,415.66z"/>
	<polygon class="st0" points="217.09,423.51 204.03,423.72 203.18,424.51 195.74,424.81 195.93,425.67 203.32,425.58 204.32,425.96 
		212.22,425.43 	"/>
	<polyline class="st0" points="308.84,390.98 309.54,409.96 232.8,409.24 232.37,398.37 	"/>
	<line class="st0" x1="346.58" y1="422.56" x2="346.58" y2="422.56"/>
	<path class="st0" d="M408.03,429.05c0.08,0.19-1-32.17-1-32.17"/>
	<line class="st0" x1="429.06" y1="398.31" x2="428.78" y2="425.02"/>
	<path class="st0" d="M387.92,395.62c0.15,2.59,2.73,36.82,2.73,36.82"/>
	<path class="st0" d="M363.59,393.97c0.15,2.59,3.19,43.1,3.19,43.1"/>
	<path class="st0" d="M344.7,392.74c0.15,2.6,3.54,47.73,3.54,47.73"/>
	<path class="st0" d="M326.65,391.5c0.15,2.6,3.76,50.66,3.76,50.66"/>
	<path class="st0" d="M309.54,409.96c0.15,2.59,2.48,34.23,2.48,34.23"/>
	<path class="st0" d="M446.86,423.16c0,0-1.42-24.67-1.57-27.26l27.22,0.56l1.14-2.47"/>
	<path class="st0" d="M453.07,420.3l8.83-3.97c2.3-1.03,4.92-1.11,7.28-0.2l1.05,0.41"/>
	<line class="st0" x1="241.05" y1="398.21" x2="241.55" y2="409.86"/>
	<line class="st0" x1="246.77" y1="409.37" x2="247.92" y2="422.58"/>
	<line class="st0" x1="297.48" y1="438.1" x2="297.36" y2="445.7"/>
	<path class="st0" d="M287.21,395.82l-1.95,0.94c-0.31-0.5-0.66-1.09-1.01-1.66l2.98-0.98L287.21,395.82z"/>
	<polygon class="st0" points="285.07,404.78 283.85,404.75 283.5,397.87 284.94,399.56 	"/>
	<path class="st0" d="M286.13,400.97l-1.19-1.41l-1.43-1.68l-4.86-5.75l0.07,0.01l3.86,0.2c0.05,0.08,0.85,1.4,1.68,2.77
		c0.35,0.57,0.7,1.16,1.01,1.66c0.5,0.84,0.88,1.46,0.91,1.51C286.26,398.42,286.13,400.97,286.13,400.97z"/>
	<line class="st0" x1="451.6" y1="371.45" x2="476.01" y2="373.27"/>
	<line class="st0" x1="459.29" y1="374.4" x2="468.56" y2="374.18"/>
	<path class="st0" d="M460.95,377.37c0.83-0.03,6.35,0.11,6.35,0.11"/>
	<line class="st0" x1="131.05" y1="412.35" x2="136.89" y2="411.96"/>
	<line class="st0" x1="178.15" y1="436.88" x2="199.56" y2="442.43"/>
	<line class="st0" x1="131.25" y1="424.73" x2="169.53" y2="434.65"/>
	<polyline class="st0" points="140.32,438.64 140.31,432 142.11,432.69 	"/>
	<path class="st0" d="M320.16,434.39c-0.6,1.56-2.35,2.34-3.91,1.74c-1.56-0.6-2.34-2.35-1.74-3.91c0.6-1.56,2.35-2.34,3.91-1.74
		C319.98,431.08,320.76,432.83,320.16,434.39z"/>
	<path class="st0" d="M441.69,411.39l0.02,3.4c0.01,0.97-0.75,1.77-1.72,1.83l-4.68,0.26c-1.13,0.06-2.1-0.8-2.17-1.93l-0.15-2.43
		c-0.07-1.13,0.8-2.09,1.93-2.15l5.42-0.26C441.08,410.08,441.69,410.66,441.69,411.39z"/>
	<line class="st0" x1="263.71" y1="434.56" x2="279.8" y2="433.83"/>
	<path class="st0" d="M270.64,447.86c0,0,12.36-3.01,14.61-3.71c2.25-0.71,4.22-3.04,4.22-3.04l-19.1,0.91"/>
	<path class="st0" d="M428.52,415.17c-0.18,0.46-0.69,0.69-1.15,0.51c-0.46-0.18-0.69-0.69-0.51-1.15c0.18-0.46,0.69-0.69,1.15-0.51
		C428.47,414.2,428.7,414.71,428.52,415.17z"/>
	<path class="st0" d="M431.69,398.45c0,0,2.17,1.7,3.25,2.12c0.46,0.17,10.76,2.57,10.76,2.57"/>
	<polygon class="st0" points="461.04,408 460.95,409.77 454.99,409.51 455.12,408.31 	"/>
	<path class="st0" d="M471.63,390.44c-3.08,0.08-6.23,0.39-7.14,0.49c-0.18,0.02-0.35,0.06-0.52,0.11l-1.55,0.51
		c-0.27,0.08-0.48,0.24-0.64,0.45l-18.07,0.33c-0.02-0.28,0.06-0.57,0.25-0.81l0.11-0.15c0.13-0.18,0.33-0.32,0.54-0.4
		c1.43-0.53,7.14-2.54,11.98-2.24c5.57,0.34,9.85,0.41,11.34,0.76C469.3,389.79,471.29,390.34,471.63,390.44z"/>
	<path class="st0" d="M484.8,391.57l-2.21,0.04L461.78,392c0.15-0.21,0.37-0.37,0.64-0.45l1.55-0.51c0.17-0.05,0.35-0.09,0.52-0.11
		c0.92-0.1,4.06-0.41,7.14-0.49c0.01-0.01,0.01-0.01,0.02,0c0.7-0.02,1.4-0.03,2.07-0.02c2.63,0.04,6.44,0.14,9.08,0.44
		c0.61,0.06,1.16,0.14,1.6,0.23C484.67,391.13,484.8,391.36,484.8,391.57z"/>
	<path class="st0" d="M277.02,400.19c-0.35-0.01-0.7,0.1-0.98,0.35l-0.95,0.83l-0.75,0.37l-0.08-2.38c0,0,1.61-0.85,1.74-0.95
		c0.05-0.04,0.4-0.17,0.78-0.3c0.01-0.01,0.04-0.01,0.05-0.02C276.91,398.71,276.98,399.56,277.02,400.19z"/>
	<path class="st0" d="M276.82,398.09c-0.02,0.02-0.04,0.02-0.05,0.02c-0.38,0.13-0.73,0.26-0.78,0.3c-0.12,0.1-1.74,0.95-1.74,0.95
		l-0.24-7.21l1.05-0.01l0.13,0l0.98,1.18c0.34,0.41,0.57,0.88,0.69,1.4l0.46,2.05C277.58,397.29,277.33,397.89,276.82,398.09z"/>
	<path class="st0" d="M272.33,398.43l-0.61-0.3l-2.99,0.18l-0.68,0.03c0,0,0.18-1.85,0.48-3.07c0.29-1.23,1.87-3.05,1.87-3.05
		l0.01,0l1.78,0L272.33,398.43z"/>
	<polygon class="st0" points="272.43,402.69 271.18,403.3 270.99,402.14 269.1,402.11 269.12,400.68 269.45,399.83 268.49,399.46 
		268.73,398.31 271.72,398.13 272.33,398.43 	"/>
	<polyline class="st0" points="133.99,435.52 134.73,431.49 135.94,431.95 135.86,436.93 	"/>
	<polygon class="st0" points="133.06,412.22 133.33,415.33 134.61,414.95 134.45,411.99 	"/>
	<polygon class="st0" points="160.26,432.25 159.83,435.62 160.97,436.06 161.77,432.64 	"/>
	<path class="st0" d="M335.65,393c-0.02,0.23-0.05,0.48-0.09,0.72c-0.09,0.59,0.36,1.14,0.96,1.17l5.02,0.24
		c0.69,0.03,1.26-0.55,1.21-1.24l-0.03-0.48c-0.03-0.46-0.4-0.83-0.86-0.86l-5.29-0.35C336.08,392.18,335.69,392.54,335.65,393z"/>
	<path class="st0" d="M475.65,415.23l-22.36,4.91L350.7,440.09l-45.68,5.21c0.1-2.19-3.01-5.21-6.37-6.95
		c-3.29-1.7-15.24-2.74-15.81-2.78l-9.99-6.75c0,0-2.85-2.97-4.72-3.27c-1.85-0.3-30.29-5.64-33.21-5.53
		c-2.91,0.11-12.09-0.2-14.88,2.35c0,0-9.25,3.28-12.54,5.22c-2.87,1.69-3.36,3.68-3.44,4.16c-0.01,0.07-0.01,0.11-0.01,0.11
		s-1.27,2.76-2.13,5.73l-0.18,0.67l-2.57,0.03c-0.86,0.64-1.56,2.02-1.16,2.79l0.1,0.2c0.33,0.62,0.98,1.01,1.69,1l1.34-0.01
		l16.9-0.14l12.23-0.1l-0.05,3.77l-8.17,0.28l-1.02,0.04l-0.16,1.91l-10.41,0.43l-0.04,0.88l-0.11,2.08
		c0.65,0.84,12.42,0.86,12.42,0.86l5.64,0.03l3.17,0.02l-2.72,0.28c0,0-0.04,0.01-0.1,0.04c-1.5,0.57-20.19,7.34-50.34,5.02
		c-31.45-2.42-37.06-13.31-37.06-13.31l-0.77-5.88c0,0-2.71-0.81-4.46-1.71c-1.74-0.9-4.43-4.1-4.43-4.1l-0.42-26.33
		c0,0,3.08-1.3,10.25-2.53c7.16-1.23,24.34-2.04,30.17-2.7c5.84-0.67,74.08-3.22,74.08-3.22l1.21,3.26l0.02,0.01l9.01,4.62
		l1.28,0.65l0.72,0l31,0.05l1.52,0l0.32,0l9.53-11.35l0.06-0.07l1.44-1.72l1.09-1.3l0.55-1.44l28.5,1.13l94.21,6.25l9.99,0.55
		c0,0,17.14-30.26,18.3-32.37c1.16-2.11,7.75-5.64,7.75-5.64l14.02,12.59L475.65,415.23z"/>
</g>
</svg>
